<svg width="64" height="64" viewBox="0 0 64 64" fill="none" xmlns="http://www.w3.org/2000/svg">
<g clip-path="url(#clip0_1408_79667)">
<g clip-path="url(#clip1_1408_79667)">
<path d="M25.6638 44.1178C25.5077 44.1329 25.3531 44.0201 25.3201 43.8668L24.3776 39.5063C24.3122 39.2153 24.301 38.9147 24.3445 38.6196L25.0241 34.0113C25.1883 32.8986 25.1921 31.768 25.0356 30.6543C25.0356 30.6543 18.7845 33.5272 18.562 34.094C18.562 34.094 14.6459 42.0452 14.3065 44.9374C13.9345 48.1084 14.6998 52.302 14.6998 52.302C14.7264 52.672 14.6672 53.0427 14.5264 53.3858C14.0048 54.6561 7.35201 67.2041 7.35201 67.2041L7.76492 70.1421L27.5511 67.3613C28.233 64.4186 30.0753 61.8761 32.6594 60.3118L33.4976 59.8045C34.6008 59.1366 35.7704 58.2613 37.5161 56.3628C41.9803 51.5075 42.4929 42.4801 42.4929 42.4797L25.6638 44.1178Z" fill="#D4AE8A"/>
<path d="M28.8863 57.1198L36.2323 57.6794C36.6257 57.3031 37.0506 56.8693 37.5163 56.3628C37.6332 56.2356 37.7474 56.1055 37.859 55.973C42.007 51.041 28.8863 57.12 28.8863 57.12L28.8863 57.1198Z" fill="#E8BC95"/>
<path d="M53.2761 25.1585L46.8816 27.6568C45.2884 28.2793 43.4923 27.4923 42.8698 25.899C42.2473 24.3058 43.0342 22.5097 44.6276 21.8871L51.0221 19.3889C52.6153 18.7664 54.4114 19.5533 55.0339 21.1467C55.6565 22.7399 54.8695 24.536 53.2761 25.1585Z" fill="#D4AE8A"/>
<path d="M49.7868 34.1131L46.6648 34.5319C45.0747 34.7452 43.6127 33.6292 43.3992 32.0391C43.1859 30.449 44.3019 28.987 45.892 28.7735L49.014 28.3546C50.6041 28.1413 52.0662 29.2574 52.2796 30.8475C52.4929 32.4376 51.3769 33.8996 49.7868 34.1131Z" fill="#F7BA9F"/>
<path d="M50.6542 41.7406L47.5322 42.1595C45.9421 42.3728 44.4801 41.2568 44.2666 39.6667C44.0534 38.0766 45.1694 36.6146 46.7595 36.4011L49.8815 35.9822C51.4716 35.7689 52.9336 36.885 53.1471 38.475C53.3604 40.0652 52.2443 41.5272 50.6542 41.7406Z" fill="#F7BA9F"/>
<path d="M51.4857 49.3503L50.1932 49.4921C48.5983 49.6671 47.1637 48.516 46.9887 46.9212C46.8137 45.3264 47.9647 43.8917 49.5596 43.7167L50.8521 43.575C52.4469 43.3999 53.8816 44.551 54.0566 46.1458C54.2316 47.7407 53.0806 49.1753 51.4857 49.3503Z" fill="#F7BA9F"/>
<path d="M47.1129 26.5456L46.9548 26.5678C46.8713 26.5796 46.7948 26.5262 46.7839 26.4487L46.4754 24.2535C46.4644 24.1758 46.5233 24.1036 46.6068 24.0919L46.7649 24.0696C46.8484 24.0579 46.9249 24.1113 46.9358 24.1888L47.2443 26.384C47.2552 26.4615 47.1964 26.5339 47.1129 26.5456Z" fill="#343535"/>
<path d="M46.5428 22.6637L46.4328 22.6791C46.329 22.6937 46.236 22.6425 46.2251 22.5648L45.341 16.2743C45.3301 16.1967 45.4054 16.1218 45.5092 16.1072L45.6191 16.0918C45.7229 16.0772 45.8159 16.1284 45.8268 16.2061L46.7109 22.4966C46.7218 22.5742 46.6465 22.6491 46.5428 22.6637Z" fill="#343535"/>
<path d="M41.1614 9.62314L23.689 12.0787C22.4604 12.2514 21.5991 13.375 21.7689 14.5834L27.3013 53.9484C27.4712 55.1569 28.6088 55.9995 29.8374 55.8269L47.3098 53.3713C48.5384 53.1986 49.3997 52.075 49.2298 50.8666L43.6974 11.5016C43.5276 10.2932 42.39 9.45048 41.1614 9.62314Z" fill="#FEFEFE"/>
<path d="M48.9548 50.7491C49.1211 51.9321 48.2938 53.0299 47.1106 53.1962L30.0388 55.5955C28.8556 55.7618 27.7577 54.9345 27.5915 53.7516L22.0968 14.6551C21.9306 13.4722 22.7579 12.3744 23.9411 12.2081L31.447 11.1532C31.5863 11.1336 31.7176 11.2217 31.7543 11.3574C31.8862 11.8465 32.0882 12.1904 32.6323 12.1139L32.6679 12.1089C33.2111 12.0326 33.2847 11.6518 33.2698 11.1481C33.2657 11.006 33.368 10.8832 33.5088 10.8634L41.013 9.8088C42.1963 9.64251 43.2941 10.4698 43.4603 11.6527L48.955 50.7491L48.9548 50.7491Z" fill="white"/>
<path d="M40.8513 8.41454C42.6997 8.15476 44.415 9.44718 44.6748 11.2961L50.228 50.8085C50.4878 52.6573 49.1954 54.3725 47.3468 54.6323L30.2077 57.0411C28.3593 57.3009 26.644 56.0084 26.3842 54.1596L20.8311 14.6469C20.5712 12.7982 21.8637 11.0829 23.7122 10.8231L40.8513 8.41438M40.8324 8.26629L23.6895 10.6756C21.7621 10.9464 20.4144 12.7351 20.6853 14.6627L26.2397 54.1844C26.5106 56.112 28.2991 57.4599 30.2266 57.189L47.3695 54.7797C49.2969 54.5088 50.6446 52.7202 50.3737 50.7926L44.8193 11.2711C44.5484 9.34344 42.7599 7.99556 40.8324 8.26644L40.8324 8.26629Z" fill="#8C94AB"/>
<path d="M40.8525 8.40905L23.7096 10.8183C21.8607 11.0782 20.568 12.7938 20.8279 14.6428L26.3823 54.1644C26.6422 56.0135 28.3578 57.3062 30.2065 57.0464L47.3494 54.6371C49.1983 54.3773 50.491 52.6617 50.2311 50.8126L44.6767 11.2911C44.4168 9.44192 42.7012 8.14923 40.8525 8.40905ZM48.9584 50.7748C49.1247 51.9578 48.2974 53.0556 47.1142 53.2219L30.0424 55.6211C28.8592 55.7874 27.7613 54.9602 27.5951 53.7772L22.1005 14.6808C21.9342 13.4979 22.7615 12.4001 23.9447 12.2338L31.4506 11.1789C31.5899 11.1593 31.7212 11.2473 31.7579 11.3831C31.8898 11.8722 32.0918 12.2161 32.6359 12.1396L32.6715 12.1346C33.2147 12.0583 33.2883 11.6774 33.2734 11.1738C33.2693 11.0317 33.3716 10.9089 33.5124 10.8891L41.0166 9.83447C42.1999 9.66818 43.2977 10.4954 43.4639 11.6784L48.9586 50.7746L48.9584 50.7748Z" fill="#414042"/>
<path d="M27.6397 56.351C26.9781 55.8295 26.5084 55.0626 26.3821 54.1644L20.8278 14.6429C20.5679 12.7937 21.8607 11.0782 23.7094 10.8183L40.8523 8.40907C41.0225 8.38515 41.1916 8.37463 41.3586 8.37621C41.3816 8.37637 41.4032 8.3659 41.417 8.34765C41.4525 8.30048 41.4192 8.23277 41.3603 8.23217C41.1862 8.23046 41.0099 8.24151 40.8325 8.26645L23.6896 10.6757C21.7621 10.9466 20.4144 12.7353 20.6853 14.6629L26.2397 54.1844C26.3715 55.1219 26.8622 55.9222 27.5532 56.4659L27.6398 56.3509L27.6397 56.351Z" fill="white"/>
<path d="M32.6029 11.9038C32.8873 11.8638 33.0855 11.6009 33.0455 11.3165C33.0055 11.0321 32.7426 10.834 32.4582 10.8739C32.1738 10.9139 31.9756 11.1769 32.0156 11.4612C32.0556 11.7456 32.3185 11.9438 32.6029 11.9038Z" fill="white"/>
<path d="M32.8467 11.6271C32.9783 11.4525 32.9434 11.2043 32.7688 11.0727C32.5942 10.9411 32.346 10.976 32.2145 11.1506C32.0829 11.3252 32.1178 11.5734 32.2924 11.705C32.467 11.8365 32.7152 11.8017 32.8467 11.6271Z" fill="#343535"/>
<path d="M24.1376 40.2001C24.1588 40.1898 24.1716 40.1681 24.1707 40.1445C24.1573 39.7709 24.2758 38.7139 24.3177 38.4293L24.9621 34.0596C24.9873 33.8892 25.0039 33.7177 25.0113 33.5455C25.1472 30.3635 24.4246 26.7057 24.2462 25.8604C24.223 25.7506 24.203 25.6405 24.1828 25.53C23.8569 23.7539 22.0723 21.0058 20.3551 21.2472C18.2237 21.4712 17.4532 23.1151 17.7014 24.8814L18.7388 32.1192C18.8278 32.7215 18.7577 33.3367 18.5352 33.9034L14.5649 44.7067C14.4908 44.8955 23.5033 40.5086 24.1376 40.1997L24.1376 40.2001Z" fill="#D4AE8A"/>
<path d="M24.4028 25.8276C24.3817 25.7278 24.3629 25.6249 24.3447 25.5254L24.3403 25.5014C24.169 24.5671 23.6098 23.4017 22.9159 22.5325C22.0815 21.4873 21.1663 20.9746 20.3382 21.0883C20.3234 21.0894 20.3087 21.0906 20.2938 21.0919C20.2482 21.0959 20.2151 21.1374 20.2215 21.1829C20.2274 21.2249 20.2651 21.2551 20.3072 21.2513C20.3231 21.2499 20.3391 21.2486 20.3553 21.2474C22.0725 21.0061 23.8571 23.7544 24.183 25.5303C24.2032 25.6408 24.2232 25.7509 24.2464 25.8607C24.4248 26.706 25.1475 30.3638 25.0116 33.5458C25.0042 33.718 24.9875 33.8895 24.9623 34.0599L24.4245 37.7071C24.4193 37.7424 24.4384 37.7769 24.4711 37.7912L24.4726 37.7918C24.5205 37.8127 24.5752 37.7823 24.5828 37.7307L25.1207 34.0832C25.1469 33.9052 25.164 33.7267 25.1715 33.5527C25.2297 32.1917 25.1402 30.5947 24.9056 28.8063C24.7189 27.3819 24.4919 26.2489 24.4032 25.8279L24.4028 25.8276Z" fill="#AA7C52"/>
<path d="M51.1185 33.6265L48.5284 35.4193C47.2092 36.3324 45.3995 36.0032 44.4864 34.684C43.5732 33.3648 43.9025 31.5551 45.2217 30.642L47.8118 28.8492C49.131 27.9361 50.9407 28.2653 51.8538 29.5845C52.7669 30.9037 52.4377 32.7134 51.1185 33.6265Z" fill="#D4AE8A"/>
<path d="M52.1141 41.248L49.5241 43.0408C48.2049 43.954 46.3952 43.6247 45.4821 42.3055C44.5689 40.9863 44.8982 39.1766 46.2174 38.2635L48.8075 36.4707C50.1267 35.5576 51.9364 35.8868 52.8495 37.206C53.7626 38.5252 53.4333 40.3349 52.1141 41.248Z" fill="#D4AE8A"/>
<path d="M53.279 48.8073L51.9902 49.6994C50.671 50.6125 48.8614 50.2832 47.9482 48.964C47.0351 47.6448 47.3644 45.8352 48.6836 44.922L49.9723 44.03C51.2915 43.1169 53.1012 43.4461 54.0143 44.7653C54.9274 46.0845 54.5982 47.8942 53.279 48.8073Z" fill="#D4AE8A"/>
<path d="M24.7146 40.8654C24.286 39.788 24.4177 39.0072 24.4619 36.5718C24.4675 36.2609 24.0467 36.1608 23.9113 36.4407C23.5136 37.2625 23.1343 38.4633 23.2506 39.8188C22.361 39.2102 21.4192 38.931 20.4841 39.0624C17.1761 39.5273 15.2038 44.9528 16.079 51.1804C16.9543 57.408 20.3455 62.0798 23.6536 61.6149C26.9617 61.1499 28.9338 55.7244 28.0586 49.4968C27.6317 46.4592 26.6062 43.7919 25.2837 41.9101C25.0549 41.5846 24.8617 41.2351 24.7147 40.8654L24.7146 40.8654Z" fill="#D4AE8A"/>
<path d="M28.0111 49.5035C28.7046 54.4385 27.6009 58.8761 25.4656 60.6924C25.4403 60.7139 25.4421 60.7807 25.4424 60.7813C25.461 60.8344 25.5269 60.852 25.5698 60.8156C26.3679 60.1378 27.0388 59.0957 27.5317 57.7398C28.3681 55.4389 28.5946 52.5059 28.1695 49.4812C28.1489 49.3347 27.9905 49.357 28.0111 49.5035Z" fill="#AA7C52"/>
<g clip-path="url(#clip2_1408_79667)">
<path fill-rule="evenodd" clip-rule="evenodd" d="M34.9657 15.2998C34.1669 15.0705 33.3153 15.1056 32.538 15.3998C31.7607 15.694 31.0993 16.2316 30.6525 16.9324C30.2057 17.6332 29.9974 18.4596 30.0586 19.2885C30.1199 20.1174 30.4475 20.9042 30.9924 21.5317C31.5374 22.1592 32.2707 22.5937 33.0828 22.7704C33.8949 22.9472 34.7424 22.8566 35.4989 22.5123C36.2553 22.1681 36.8802 21.5885 37.2804 20.86C37.6805 20.1316 37.8345 19.2933 37.7193 18.4702L37.666 18.0908C37.6419 17.9198 37.761 17.7618 37.9319 17.7378C38.1028 17.7138 38.2608 17.8329 38.2849 18.0038L38.3382 18.3834C38.4721 19.34 38.2932 20.3144 37.8282 21.1609C37.3631 22.0075 36.6369 22.6811 35.7578 23.0812C34.8786 23.4813 33.8937 23.5865 32.9499 23.3811C32.0061 23.1758 31.154 22.6708 30.5206 21.9415C29.8872 21.2123 29.5065 20.2979 29.4353 19.3346C29.3641 18.3713 29.6062 17.4108 30.1255 16.5964C30.6448 15.7819 31.4134 15.1572 32.3167 14.8153C33.2201 14.4733 34.2098 14.4326 35.1382 14.6991C35.3041 14.7467 35.3999 14.9198 35.3523 15.0857C35.3047 15.2516 35.1316 15.3475 34.9657 15.2998Z" fill="#4A4A4A" stroke="#4A4A4A" stroke-width="0.3"/>
<path fill-rule="evenodd" clip-rule="evenodd" d="M37.7528 14.8763C37.8907 14.9801 37.9183 15.176 37.8145 15.3139L34.2689 20.024C34.219 20.0903 34.1449 20.134 34.0628 20.1456C33.9807 20.1571 33.8973 20.1356 33.8311 20.0857L32.4193 19.0218C32.2815 18.9179 32.2539 18.722 32.3578 18.5842C32.4617 18.4463 32.6576 18.4188 32.7954 18.5227L33.9576 19.3984L37.3152 14.938C37.419 14.8001 37.6149 14.7725 37.7528 14.8763Z" fill="#4A4A4A" stroke="#4A4A4A" stroke-width="0.3"/>
</g>
<g clip-path="url(#clip3_1408_79667)">
<path fill-rule="evenodd" clip-rule="evenodd" d="M36.9142 29.1636C36.1153 28.9343 35.2637 28.9693 34.4864 29.2635C33.7091 29.5578 33.0477 30.0953 32.6009 30.7961C32.1541 31.4969 31.9458 32.3234 32.0071 33.1523C32.0683 33.9811 32.3959 34.768 32.9409 35.3955C33.4859 36.023 34.2191 36.4575 35.0312 36.6342C35.8433 36.8109 36.6908 36.7204 37.4473 36.3761C38.2037 36.0318 38.8286 35.4522 39.2288 34.7238C39.6289 33.9953 39.7829 33.157 39.6677 32.3339L39.6144 31.9545C39.5904 31.7836 39.7094 31.6256 39.8803 31.6016C40.0513 31.5775 40.2093 31.6966 40.2333 31.8675L40.2866 32.2471C40.4205 33.2037 40.2416 34.1781 39.7766 35.0247C39.3115 35.8713 38.5853 36.5448 37.7062 36.945C36.827 37.3451 35.8421 37.4503 34.8983 37.2449C33.9545 37.0395 33.1024 36.5345 32.469 35.8053C31.8356 35.0761 31.455 34.1616 31.3838 33.1983C31.3126 32.2351 31.5546 31.2746 32.0739 30.4601C32.5932 29.6457 33.3618 29.0209 34.2652 28.679C35.1685 28.3371 36.1582 28.2964 37.0866 28.5629C37.2525 28.6105 37.3484 28.7836 37.3007 28.9494C37.2531 29.1153 37.08 29.2112 36.9142 29.1636Z" fill="#4A4A4A" stroke="#4A4A4A" stroke-width="0.3"/>
<path fill-rule="evenodd" clip-rule="evenodd" d="M39.7012 28.7401C39.8391 28.8439 39.8667 29.0398 39.7629 29.1777L36.2173 33.8878C36.1674 33.954 36.0933 33.9977 36.0112 34.0093C35.9291 34.0209 35.8458 33.9993 35.7795 33.9494L34.3677 32.8856C34.2299 32.7817 34.2024 32.5858 34.3062 32.4479C34.4101 32.3101 34.606 32.2825 34.7439 32.3864L35.906 33.2621L39.2636 28.8018C39.3674 28.6639 39.5633 28.6363 39.7012 28.7401Z" fill="#4A4A4A" stroke="#4A4A4A" stroke-width="0.3"/>
</g>
<g clip-path="url(#clip4_1408_79667)">
<path fill-rule="evenodd" clip-rule="evenodd" d="M38.8626 43.0274C38.0637 42.798 37.2121 42.8331 36.4348 43.1273C35.6575 43.4215 34.9961 43.9591 34.5493 44.6599C34.1025 45.3607 33.8942 46.1872 33.9555 47.016C34.0167 47.8449 34.3443 48.6317 34.8893 49.2592C35.4343 49.8867 36.1675 50.3212 36.9796 50.4979C37.7918 50.6747 38.6392 50.5841 39.3957 50.2398C40.1522 49.8956 40.7771 49.316 41.1772 48.5875C41.5774 47.8591 41.7313 47.0208 41.6161 46.1977L41.5628 45.8183C41.5388 45.6474 41.6579 45.4893 41.8288 45.4653C41.9997 45.4413 42.1577 45.5604 42.1817 45.7313L42.2351 46.1109C42.3689 47.0675 42.1901 48.0419 41.725 48.8884C41.26 49.735 40.5337 50.4086 39.6546 50.8087C38.7755 51.2088 37.7906 51.314 36.8467 51.1086C35.9029 50.9033 35.0508 50.3983 34.4174 49.6691C33.7841 48.9398 33.4034 48.0254 33.3322 47.0621C33.261 46.0988 33.5031 45.1383 34.0223 44.3239C34.5416 43.5095 35.3102 42.8847 36.2136 42.5428C37.1169 42.2009 38.1066 42.1601 39.035 42.4266C39.2009 42.4742 39.2968 42.6473 39.2492 42.8132C39.2016 42.9791 39.0285 43.075 38.8626 43.0274Z" fill="#4A4A4A" stroke="#4A4A4A" stroke-width="0.3"/>
<path fill-rule="evenodd" clip-rule="evenodd" d="M41.6496 42.6038C41.7875 42.7076 41.8151 42.9035 41.7114 43.0414L38.1657 47.7515C38.1158 47.8178 38.0417 47.8615 37.9596 47.8731C37.8775 47.8846 37.7942 47.8631 37.728 47.8132L36.3162 46.7493C36.1783 46.6454 36.1508 46.4495 36.2547 46.3117C36.3585 46.1738 36.5545 46.1463 36.6923 46.2502L37.8544 47.1259L41.212 42.6655C41.3158 42.5276 41.5117 42.5 41.6496 42.6038Z" fill="#4A4A4A" stroke="#4A4A4A" stroke-width="0.3"/>
</g>
<path fill-rule="evenodd" clip-rule="evenodd" d="M17.3244 13.5258C16.3414 13.3923 15.3325 13.397 14.3549 13.4089C14.1444 13.4121 13.9726 13.5831 13.9863 13.7882C13.9853 13.9954 14.1593 14.1603 14.355 14.1591C15.3024 14.1468 16.2805 14.1387 17.2178 14.2685C17.4176 14.2972 17.6085 14.1536 17.6399 13.9483C17.6713 13.7431 17.5243 13.5546 17.3244 13.5258Z" fill="#4A4A4A"/>
<path fill-rule="evenodd" clip-rule="evenodd" d="M18.8086 10.4753C17.0677 9.13004 15.1629 8.01242 13.4457 6.62113C13.2917 6.49029 13.0542 6.51551 12.9261 6.67586C12.798 6.83635 12.8163 7.07339 12.985 7.20215C14.7029 8.59804 16.6083 9.7201 18.3498 11.07C18.5181 11.1952 18.7547 11.1641 18.8823 10.9997C18.9951 10.8376 18.9768 10.6005 18.8086 10.4753Z" fill="#4A4A4A"/>
<path fill-rule="evenodd" clip-rule="evenodd" d="M20.1054 6.19713C20.2752 7.0833 20.4448 7.96948 20.6146 8.8558C20.6433 9.06021 20.8429 9.19311 21.0483 9.1541C21.2538 9.11494 21.377 8.92019 21.3482 8.71563C21.1783 7.82798 21.0084 6.94046 20.8385 6.05296C20.795 5.85062 20.5956 5.71875 20.3904 5.75895C20.1999 5.79707 20.062 5.99494 20.1054 6.19713Z" fill="#4A4A4A"/>
</g>
</g>
<defs>
<clipPath id="clip0_1408_79667">
<rect width="64" height="64" fill="white"/>
</clipPath>
<clipPath id="clip1_1408_79667">
<rect width="64" height="64" fill="white" transform="translate(-1.14215 6.76492) rotate(-8)"/>
</clipPath>
<clipPath id="clip2_1408_79667">
<rect width="10" height="10" fill="white" transform="translate(28.2554 14.7513) rotate(-8)"/>
</clipPath>
<clipPath id="clip3_1408_79667">
<rect width="10" height="10" fill="white" transform="translate(30.2039 28.615) rotate(-8)"/>
</clipPath>
<clipPath id="clip4_1408_79667">
<rect width="10" height="10" fill="white" transform="translate(32.1523 42.4788) rotate(-8)"/>
</clipPath>
</defs>
</svg>
