<svg fill="none" height="94" viewBox="0 0 119 94" width="119" xmlns="http://www.w3.org/2000/svg"><g fill="#4a4a4a"><path d="m80.43 75.97c-.27-.01-.55-.11-.77-.07-.27.05-.48.27-.67.4-.21.14-.5.27-.61.5-.1.21-.17.51-.18.78-.01.23-.02.51.02.78.04.23.14.45.18.69.04.23.3.42.34.66.04.23-.09.49-.05.73.04.23.16.45.2.69.26-.04.48-.26.72-.29.25-.03.5-.01.74-.05.25-.04.5.02.74-.03.29-.07.62-.32.6-.47-.03-.22.08-.46.05-.69-.03-.22.04-.46.01-.68s-.27-.41-.31-.64c-.04-.22-.08-.44-.12-.66s.23-.5.18-.72-.3-.4-.35-.62c-.02-.14-.45-.3-.72-.31z"/><path d="m64.9 91.99c-.25.04-.48.17-.71.18-.25.01-.48-.19-.72-.21-.25-.02-.47-.04-.7-.09-.24-.05-.54.12-.76.03-.23-.09-.51-.12-.72-.24s-.31-.43-.49-.58c-.18-.16-.5-.21-.65-.39s-.09-.53-.22-.74c-.12-.2-.15-.44-.25-.67-.09-.22-.38-.38-.44-.62-.06-.23-.11-.48-.14-.72-.03-.23.12-.49.11-.74-.01-.23.09-.34.1-.59.25-.04.36-.09.6-.15.24-.05.44-.29.67-.35.24-.07.49-.08.71-.16.23-.09.4-.31.61-.41.23-.1.47-.15.67-.27.21-.13.45-.2.64-.34.2-.15.45-.24.62-.41.18-.17.36-.36.5-.55.15-.19.09-.52.21-.73.11-.21.23-.41.31-.64s.09-.46.13-.7c.04-.21.27-.52.2-.79-.07-.31-.37-.48-.54-.56-.22-.1-.44-.22-.66-.32-.23-.1-.5-.06-.73-.14s-.43-.24-.66-.3c-.24-.06-.46-.2-.7-.23-.24-.02-.49-.04-.74-.02-.24.02-.47.13-.71.2-.23.07-.39.26-.61.38-.21.11-.56 0-.77.15-.19.15-.37.31-.56.46s-.28.42-.47.57-.45.2-.64.34c-.19.15-.44.22-.62.36-.19.15-.31.46-.49.6-.12-.2-.13-.49-.19-.71s-.21-.42-.22-.65c-.01-.22-.03-.46 0-.7.03-.22.1-.45.17-.68.06-.21.26-.38.35-.6.09-.2-.02-.53.1-.73.11-.19.35-.32.49-.51.13-.18.44-.22.59-.4.15-.17.11-.52.27-.69.16-.16.46-.17.64-.33.17-.15.24-.36.43-.5-.07-.24.05-.48-.04-.66-.11-.23-.21-.49-.34-.63-.17-.19-.45-.34-.65-.4s-.5 0-.74.08c-.19.06-.4.19-.62.32-.17.11-.2.45-.39.61-.17.15-.41.23-.59.37s-.55.09-.69.26c-.15.17-.18.46-.32.63-.15.18-.23.4-.37.59s-.18.43-.31.62-.4.29-.51.49-.3.38-.38.59c-.09.21-.26.41-.33.63-.06.22.02.49-.02.72-.04.22-.18.45-.19.69-.01.22.19.46.21.7s-.04.49.01.7c.06.23.06.5.16.7.1.21.43.29.57.47s.2.43.37.59c.17.15.35.31.54.44.18.13.35.32.55.44s.45.14.66.25c.23.12.45.51.5.81.04.25.19.5.21.76.02.25-.16.52-.14.78s-.13.54-.09.79.31.46.4.69c.08.22.05.51.17.72.12.2.39.31.54.5.14.19.16.49.32.67.16.17.33.36.51.52.18.15.48.16.68.3.19.14.45.17.65.29s.33.37.55.47c.21.11.44.19.66.28s.46.12.69.19c.22.08.46.11.69.17s.39.41.63.46c.23.05.51-.1.74-.07.24.03.48-.05.72-.03s.47.1.71.1.47-.11.7-.13c.24-.02.43.03.66-.02.02-.22.05-.38.05-.59.01-.24-.1-.39-.18-.56-.08-.18-.07-.53-.33-.57-.12.01-.37.12-.63.16zm-2.8-10.56c.19.2.45.34.64.54-.17.16-.51.22-.68.38s-.34.33-.51.49-.18.5-.35.66-.28.39-.45.55-.48.19-.65.35c-.17-.16-.53-.34-.69-.51.17-.17.56-.3.73-.47s.38-.29.55-.45.17-.5.33-.67c.17-.17.33-.34.5-.5s.42-.2.58-.37z"/><path d="m93.6 71.83c-.21-.13-.46-.18-.68-.3-.22-.11-.46-.16-.69-.26s-.45-.19-.68-.27c-.24-.08-.42-.3-.66-.37-.21-.06-.41-.19-.63-.27-.21-.08-.41-.23-.63-.29-.23-.06-.48-.07-.7-.06s-.52.01-.72.14c-.17.11-.25.38-.39.61-.11.17-.13.35-.22.59.21.12.29.38.5.5s.57-.01.78.11.27.52.48.64.6-.06.81.06.32.44.53.56.54.03.76.15.32.44.54.56.37.34.59.46c.32.17.64.06.84.02.26-.06.52-.22.66-.46s.34-.48.44-.69c.08-.15-.23-.53-.41-.82-.14-.27-.33-.5-.52-.61z"/><path d="m83.19 75.1501c.15.16.14.37.28.53.15.16.39.25.54.41s.15.46.3.62.39.23.54.39.27.34.42.5c.17.19.43.26.58.4.2.18.28.46.47.55.23.11.5.2.72.18.21-.02.46-.14.68-.28.17-.11.29-.34.48-.53.15-.15.26-.31.42-.51-.16-.19-.35-.27-.5-.44-.16-.18-.23-.43-.39-.59-.17-.18-.24-.44-.4-.59-.18-.17-.53-.13-.7-.27-.19-.16-.17-.57-.35-.69-.21-.14-.57.02-.76-.08-.23-.11-.42-.12-.63-.16-.24-.04-.48-.41-.7-.37-.22.05-.39.32-.6.45-.17.13-.23.29-.4.48z"/><path d="m117.87 47.91c-.05-.24-.3-.43-.36-.66-.07-.24-.16-.46-.24-.68-.08-.23-.16-.46-.26-.67-.1-.22-.11-.49-.22-.7-.12-.21-.16-.48-.29-.68s-.43-.3-.57-.49c-.15-.19-.42-.27-.58-.45s-.2-.47-.38-.64c-.17-.17-.35-.33-.54-.49-.18-.15-.44-.22-.63-.37-.19-.14-.35-.34-.55-.48-.2-.13-.36-.35-.57-.47s-.53-.03-.75-.14c-.21-.11-.29-.49-.52-.6-.22-.1-.54.02-.77-.08-.22-.1-.38-.32-.59-.41-.22-.09-.43-.2-.65-.28s-.5-.01-.72-.08c-.23-.07-.44-.17-.66-.23-.23-.06-.47-.04-.7-.08s-.45-.1-.69-.13c-.23-.03-.46-.09-.69-.09-.23-.01-.46.01-.7.03-.23.02-.46.04-.7.07-.23.04-.46.05-.69.11-.22.06-.43.18-.65.27-.22.08-.45.11-.67.22-.21.1-.44.17-.64.28-.21.11-.37.3-.57.41-.2.12-.51.07-.7.19-.2.13-.33.35-.52.48s-.34.32-.52.46-.38.27-.55.42c-.18.15-.41.25-.57.41-.17.16-.2.45-.36.62s-.33.32-.48.5-.48.21-.62.4c-.14.18-.17.45-.3.65-.13.19-.32.35-.44.55s-.2.43-.3.63c-.11.21-.2.42-.3.63s-.07.48-.15.69c-.08.22-.06.47-.13.69s-.15.43-.21.65-.06.45-.11.68-.23.42-.26.65-.15.45-.17.68.08.47.07.7-.07.46-.07.69c.01.23-.07.47-.06.7.02.23.08.46.11.69s.06.47.12.69.28.39.37.6.13.45.25.64.18.43.32.62c.14.18.41.26.56.43s.13.5.29.67c.16.16.42.23.59.39s.47.16.64.32.27.39.43.54c.17.16.21.44.37.6.17.18.42.29.62.44s.39.33.61.45c.21.12.5.11.73.22.22.1.42.27.66.37.23.09.44.26.67.35.24.09.55-.05.78.04.24.09.44.25.67.34.22.08.49.01.71.08s.36.44.58.5c.23.06.45.14.68.19s.46.11.69.15.5-.23.73-.21.45.25.68.25c.23.01.47-.05.7-.06s.45-.22.68-.24c.23-.03.47.02.7-.02s.43-.18.65-.24.45-.09.67-.16c.22-.08.44-.14.65-.23s.52.01.73-.1c.22-.11.28-.49.49-.61s.5-.1.7-.23.37-.31.56-.45.44-.22.62-.37c.19-.16.45-.23.62-.4s.27-.41.43-.59.4-.3.54-.49c.15-.19.31-.38.44-.58s.23-.43.35-.64.15-.47.25-.69.12-.47.2-.69.34-.4.4-.63-.23-.55-.18-.78.45-.4.49-.64c.03-.23-.1-.49-.08-.74.02-.24-.07-.48-.06-.72 0-.24.21-.48.21-.73-.02-.24-.05-.48-.07-.72s-.14-.47-.16-.71-.08-.48-.11-.72c-.04-.24.07-.51.02-.74zm-4.85 8.86c-.17.19-.21.5-.38.67-.18.18-.36.36-.55.52-.2.16-.41.3-.62.44s-.48.17-.7.29-.48.12-.71.22c-.23.09-.4.34-.64.41s-.46.28-.71.32c-.24.04-.52-.1-.77-.09s-.5.01-.75-.01c-.24-.01-.49.06-.75.03-.25.06-.49.01-.72.03-.25.02-.49-.08-.72-.09-.25-.01-.52.19-.75.14-.24-.05-.39-.4-.62-.48s-.54.06-.76-.04-.37-.35-.58-.47-.39-.27-.6-.41c-.2-.13-.49-.15-.68-.29s-.36-.32-.55-.47-.43-.25-.62-.4-.36-.32-.55-.47c-.2-.16-.36-.36-.52-.54-.17-.19-.33-.38-.46-.59s-.24-.44-.33-.67-.12-.48-.18-.72-.15-.47-.18-.72c-.03-.24.02-.49.02-.74 0-.24.04-.49.05-.73s-.05-.49-.03-.74c.02-.24.25-.46.29-.7.03-.24-.05-.49 0-.73.04-.24.03-.49.09-.72.06-.24.14-.46.21-.69s.22-.43.31-.66c.08-.23 0-.52.1-.74s.23-.43.34-.64.44-.3.57-.5.15-.47.3-.66c.14-.19.36-.32.52-.5s.29-.37.47-.54c.17-.17.34-.32.53-.48.18-.15.3-.39.5-.53.19-.14.34-.36.55-.48.17-.1.43-.18.65-.23s.5-.11.7-.07c.23.04.43.23.66.28s.43.19.66.24.48-.01.7.05c.23.05.44.17.66.22.23.05.43.2.66.25s.46.07.69.11c.23.05.45.11.68.16.23.04.48-.06.71-.02s.45.15.68.18.45.13.69.15.49-.11.71-.07c.24.04.4.33.61.4.23.07.48.03.68.13.21.11.53.07.71.21s.3.39.45.57c.15.17.14.45.26.66.11.19.27.36.36.58.08.21.11.44.17.67.06.22.25.41.29.65.05.24.01.5.06.75.04.24 0 .5.03.74.03.25.29.46.32.71.02.25-.05.5-.03.75.01.25.17.5.17.74 0 .25-.33.48-.35.73s-.07.48-.11.72-.11.47-.17.71.16.56.07.79c-.08.23-.38.38-.48.6s-.17.45-.3.67c-.13.21-.11.52-.26.72-.2.22-.58.23-.75.42z"/><path d="m22.54 54.98c.15-.19.31-.36.44-.56.14-.2.17-.45.29-.65.12-.21.2-.42.3-.63.1-.22.41-.35.49-.57.08-.23.24-.44.3-.67s.05-.49.09-.73c.03-.24.1-.49.11-.72.01-.24-.3-.47-.31-.71-.02-.24-.04-.46-.08-.69-.04-.24-.04-.47-.11-.7s-.19-.42-.28-.65c-.09-.22.12-.59.01-.8s-.51-.25-.65-.45c-.13-.2-.05-.56-.21-.74-.15-.18-.42-.27-.59-.44-.17-.16-.4-.25-.6-.41-.18-.15-.41-.22-.62-.35-.21-.14-.38-.31-.61-.43-.22-.11-.41-.29-.64-.39s-.44-.24-.68-.33c-.24-.08-.47-.17-.71-.24-.24-.08-.49-.14-.72-.21-.24-.08-.51-.05-.75-.13s-.43-.32-.64-.41c-.25-.1-.44-.14-.51-.38-.05-.17-.11-.41 0-.73.23.05.47.15.7.19.24.04.46.19.68.22.24.03.48 0 .71.01.24.01.48-.18.71-.18.24 0 .47-.04.69-.06.24-.02.49.12.72.09.24-.04.43-.25.65-.31.23-.06.45-.11.66-.19.22-.09.42-.19.61-.31.21-.12.39-.24.57-.39s.3-.33.45-.51.42-.27.53-.47.11-.46.19-.68c.07-.22.27-.41.31-.65.03-.22 0-.5 0-.74-.22-.09-.52-.02-.74-.1s-.39-.29-.61-.36-.48.01-.71-.04c-.23-.06-.4-.34-.62-.38-.23-.05-.49.1-.71.07-.23-.03-.45-.15-.68-.17-.23-.01-.46.12-.69.13s-.48-.21-.71-.18-.43.24-.65.3-.47.03-.69.12c-.21.08-.46.12-.67.23-.2.11-.34.3-.53.43-.23-.13-.44-.24-.65-.36-.23-.13-.42-.3-.63-.42-.22-.13-.47-.21-.68-.34-.22-.13-.43-.24-.65-.36-.15.22-.18.47-.27.68-.11.24-.23.45-.28.68-.06.25-.24.48-.25.73s-.06.52-.03.77c.02.25.16.49.21.74.04.24.04.5.09.75.05.24.22.46.26.71s.06.49.08.74-.09.36-.1.61c-.25 0-.35-.03-.59-.03s-.48.04-.72.04-.48-.03-.71-.03c-.24 0-.48.08-.71.07-.26-.01-.50001.22-.74001.24-.25.02-.52-.15-.76-.1-.25.05-.51.07-.74.15-.23.09-.43.28-.64.41-.22.12-.5.16-.7.31-.19.15-.37.35-.55.53-.17.17-.09.57-.24.77-.15.19-.3.36-.44.58-.13.2-.57.24-.68.46-.11.21-.03.53-.12.77-.08.22-.33.42-.38.66-.05.23.1.52.06.77-.03.24-.25.47-.26.72-.01.24.16.5.17.74s-.06.5-.03.75c.03.24.22.46.26.71.05.24-.05.52.01.76s.16.47.24.71c.08.23.1.5.2.72s.53.29.65.5c.12.22.04.54.18.75.13.21.39.32.54.52.15.19.14.53.31.71s.38.33.57.49c.18.15.31.38.5.52s.51.1.71.23.32.38.53.5c.2.12.54-.02.75.09.21001.1.36001.33.58001.42s.45.14.67.22.42.23.65.3.48.04.71.09.44.21.67.25.46.2.69.23c.23.02.48.03.72.04s.48-.26.71-.27c.24-.01.49.26.73.23.23-.02.46-.15.7-.19.23-.04.48-.06.71-.11s.43-.22.66-.3c.22-.07.39-.28.61-.37s.55.08.76-.03c.21-.1.36-.33.57-.45.2-.12.5-.09.7-.23.19-.13.23-.48.42-.63.18-.15.51-.13.69-.29.17-.16.37-.31.54-.48.13-.19.1-.54.25-.73zm-1.21-17.55c-.1.24-.2.53-.31.72-.12.23-.18.5-.32.67-.16.19-.36.4-.55.52-.2.12-.52 0-.76.05-.21.05-.43-.02-.69-.02-.22 0-.44.04-.69.01-.22-.03-.44-.1-.69-.15-.22-.04-.58.18-.82.13-.02-.13-.05-.52-.07-.65.22-.06.53-.12.76-.19.22-.06.43-.18.66-.25.22-.06.55.21.77.14.22-.06.36-.44.59-.51.22-.06.52.14.75.08.22-.06.41-.26.64-.33.22-.04.5-.16.73-.22z"/><path d="m64.53 70.13c.24.01.49-.2.72-.19.24.01.48-.05.72-.04s.46.36.7.37.47.04.71.06c.24.01.48-.03.72-.02s.47.07.71.08.49-.2.72-.18.47.07.71.08.47.13.71.14.48-.02.72-.01.48-.13.72-.12.47.2.7.21c.24.01.47.05.71.06s.49-.18.72-.17c.24.01.46.27.7.29s.48-.05.72-.04.47.09.71.1.47.06.71.07.48-.03.72-.02.48-.08.72-.07.47.06.71.07.48-.02.72-.01.47.08.71.09c.23.01.43-.21.67-.3.22-.08.5-.04.71-.18.2-.13.49-.17.67-.34.18-.16.19-.5.35-.69s.43-.3.55-.51c.13-.22.04-.53.11-.75.08-.24.27-.45.26-.67-.01-.23-.08-.46-.09-.69s.03-.46.02-.69-.14-.46-.15-.69-.07-.46-.08-.69.05-.46.04-.7.05-.47.04-.7.14-.47.13-.7-.23-.45-.24-.69.14-.47.13-.7-.24-.45-.25-.68c-.01-.24.17-.49.16-.72-.01-.24-.07-.48-.08-.72s.15-.48.14-.72-.12-.47-.13-.71-.18-.47-.19-.71.16-.48.15-.72.1-.48.09-.72-.35-.47-.36-.71.32-.49.31-.73-.05-.48-.06-.72-.02-.48-.03-.72-.22-.47-.23-.71.01-.48 0-.72.22-.49.22-.73c-.01-.24-.11-.47-.12-.71s-.14-.47-.15-.71-.11-.47-.12-.71.25-.49.24-.73-.21-.47-.22-.71-.09-.48-.1-.71c-.01-.24-.03-.48-.04-.72s.17-.49.15-.73c-.01-.24-.15-.48-.17-.72-.01-.24-.03-.48-.05-.73-.02-.24-.03-.48-.05-.73-.02-.24 0-.49-.02-.73s.18-.5.16-.74-.36-.46-.37-.7c-.02-.24.15-.5.13-.74s.03-.49.02-.73c-.02-.24-.21-.47-.22-.71-.02-.24.19-.5.18-.74s-.29-.47-.3-.71.07-.49.06-.73c-.01-.25-.05-.49-.06-.74s.15-.5.14-.74c-.01-.25-.22-.49-.23-.73 0-.25.2-.49.2-.74s-.2-.49-.21-.74c0-.25.08-.49.08-.74s-.2-.49-.19-.74c0-.25.24-.49.24-.74s-.13-.49-.12-.74.22-.49.23-.73c.01-.25-.15-.5-.15-.74.01-.25-.16-.49-.18-.73-.02-.25.03-.49-.01-.73-.04-.25-.05-.49-.12-.73s.01-.54-.09-.76c-.1-.23-.32-.4-.45-.61s-.4-.31-.55-.5-.23-.44-.4-.61c-.18-.17-.42-.25-.62-.39s-.29-.45-.51-.57c-.21-.12-.48-.13-.72-.22-.23-.09-.4-.38-.64-.45-.23-.06-.55.22-.79.18s-.46-.29-.71-.31c-.24-.01-.5-.06-.75-.05-.24.01-.47.03-.71.03-.24.01-.47.24-.7.25-.24.01-.48-.11-.71-.11-.24 0-.47.1-.71.1s-.47.04-.71.04-.47-.01-.71-.01-.47-.15-.71-.15-.47.07-.71.07-.47.09-.71.08-.47.03-.71.03-.47-.26-.71-.26-.48.3-.71.29c-.24 0-.47-.18-.71-.18s-.48.11-.71.1c-.24 0-.47-.29-.71-.29s-.48.27-.71.26-.47-.31-.71-.31-.48.11-.71.11c-.25 0-.5.21-.75.2s-.49-.23-.74-.24-.49-.14-.74-.15-.51.24-.76.22c-.25-.01-.49-.16-.74-.18-.25-.01-.5.09-.75.07-.25-.01-.49-.1-.74-.12-.25-.01-.5.03-.75.02s-.5 0-.75-.02c-.25-.01-.49-.14-.74-.15-.24-.01-.48-.16-.72-.17s-.49.19-.73.18-.48-.23-.72-.24-.49.13-.73.12-.49.21-.74.2-.48-.09-.72-.1-.48-.07-.72-.08-.48-.21-.72-.22-.48-.05-.72-.06-.5.26-.74.25-.47-.33-.71-.34-.49.14-.73.14c-.24-.01-.48-.15-.72-.16s-.49.06-.73.05-.49.07-.73.06-.48-.07-.72-.08-.48-.2-.72-.21-.49.12-.73.12c-.24-.01-.48-.05-.72-.06s-.48-.02-.73-.03-.48-.09-.72-.1-.5.29-.74.28-.48-.02-.73-.03-.48-.26-.72-.27-.49.03-.73.02-.48-.05-.73-.06c-.24-.01-.49.12-.73.11s-.48-.26-.72-.27-.48-.03-.73-.03c-.24-.01-.49.03-.73.02-.27-.01-.51.28-.75.3-.26.03-.52-.04-.75.04-.25.08-.48.18-.69.3-.22.13-.4.3-.57.49-.17.18-.42.32-.54.55-.12.21-.01.53-.08.78-.07.23-.35.43-.38.69-.03.24.23.5.23.77 0 .25-.36.5-.36.74 0 .25.11.49.11.74s.1.49.11.74c0 .25-.22.5-.21.74 0 .25.38.49.39.73 0 .25-.08.49-.08.74s-.24.5-.24.74.18.49.18.74-.01.49-.01.74-.14.49-.14.74.02.49.02.74-.03.49-.02.74c0 .25.18.49.18.74s-.16.49-.16.74.05.49.05.74c0 .24.21.48.21.72s-.07.48-.06.72.1.48.1.72-.23.48-.23.72.06.48.06.72.09.48.09.72.15.48.16.72-.18.48-.17.72c0 .24-.06.48-.05.72 0 .24.29.48.29.71s-.1.48-.1.72-.13.48-.13.72-.08.48-.08.72.29.48.29.71c0 .24-.21.48-.2.72s.15.48.15.72.01.48.01.72-.08.48-.07.72-.1.48-.1.72.11.48.11.72.08.48.08.72.04.48.04.72-.14.48-.14.72-.15.48-.15.72.27.48.28.71c0 .24.12.48.13.72 0 .24-.33.48-.33.72s.07.48.07.72.21.48.21.72-.08.48-.07.72c0 .24.06.48.06.72s-.05.48-.05.72-.21.48-.21.72.01.48.02.72c0 .24.01.53.01.77.07 0 .37-.07.45-.08 0 .25-.21.53-.22.78s-.06.51-.06.76c-.01.26.1.52.11.77.01.26-.07.53-.03.78.04.26.25.48.28.7.04.27.19.5.22.72.04.27-.07.54-.03.75.05.28.01.55.08.76.09.25.38.37.54.55.15.16.31.32.56.45.19.1.47.02.73.12.21.07.33.49.59.57.22.06.45.15.71.22.24.06.52-.04.76.02s.45.27.69.32.48.1.73.15c.24.04.5-.03.75.01.24.04.48.16.72.19s.52-.21.76-.18c.24.02.47.23.72.25.24.02.5-.04.74-.03s.48.08.73.09.48.04.73.05c.24.01.48.05.73.06.24.01.49-.03.73-.02s.48.07.73.09.5-.26.74-.25.48.14.72.15.49.02.73.03.48.25.72.26.49.02.73.03.5-.32.74-.31.48.21.72.22.49-.01.73 0 .48.22.72.23.5-.24.74-.23.49-.1.73-.09.48.23.72.24.48.19.72.19c.24.01.49-.05.73-.04s.49-.11.73-.1.48.19.72.2.49-.08.73-.07.49-.04.73-.03.49 0 .73.01.49-.1.73-.08c.24.01.49.05.73.06s.47.27.72.28c.24.01.5-.16.74-.15s.49.02.73.03.49.02.73.03.49-.05.73-.04.48.16.72.17c.23.02.46.15.71.16zm-26.99-4c-.25-.02-.53.17-.76.12-.25-.05-.53-.06-.75-.15-.23-.09-.3-.51-.5-.64-.21-.14-.36-.29-.53-.46s-.34-.31-.47-.52c-.13-.2-.18-.42-.27-.66-.08-.22-.36-.39-.4-.64-.04-.23-.03-.49-.03-.74-.01-.24.09-.49.08-.74-.01-.24-.06-.49-.07-.73s-.17-.49-.18-.73.16-.49.16-.74c-.01-.24.01-.49 0-.73s-.21-.48-.22-.73c-.01-.24.24-.5.23-.74s-.08-.49-.09-.73.06-.49.05-.74c-.01-.24.03-.49.02-.74-.01-.24-.07-.49-.07-.73-.01-.24-.11-.49-.11-.73-.01-.24.02-.49.02-.74s-.05-.49-.06-.73.05-.49.04-.74c-.01-.24-.2-.48-.21-.73-.01-.24.15-.49.14-.74-.01-.24.12-.49.12-.74-.01-.24-.24-.47-.25-.7-.01-.24.13-.48.13-.71s-.24-.47-.24-.7c-.01-.24.13-.48.12-.71-.01-.24-.09-.47-.1-.71s.02-.47.01-.71-.14-.47-.15-.7c-.01-.24-.07-.47-.08-.71s.05-.48.04-.71c-.01-.24.05-.48.04-.71-.01-.24.14-.48.13-.72s-.23-.47-.23-.7c-.01-.24.14-.48.13-.71-.01-.24-.24-.47-.25-.7-.01-.24.17-.48.16-.72s-.07-.47-.08-.71.15-.48.15-.72c-.01-.24-.12-.47-.13-.71s-.18-.47-.19-.7c-.01-.24.16-.48.15-.72s.1-.48.09-.71c-.01-.24-.35-.46-.35-.7s.32-.48.31-.72-.04-.47-.05-.71-.02-.47-.02-.71c-.01-.24-.22-.47-.22-.7s.02-.47.01-.71c-.01-.25.24-.5.24-.75s-.08-.5-.07-.75-.1-.5-.08-.75c.01-.25-.06-.5-.04-.75s.31-.48.33-.72c.02-.25-.15-.51-.13-.76s-.03-.5-.01-.75.03-.5.04-.74c.02-.27.24-.47.32-.67.09-.24.11-.51.29-.65.17-.14.41-.25.66-.3.21-.04.46-.06.73-.05.24.01.48.05.71.06.24.01.47.24.71.25s.49-.3.73-.29.47.21.71.22.47.09.71.1.48-.16.72-.15.47.24.71.25.49-.24.72-.23c.24.01.47.11.71.12s.48-.02.72-.01.47.18.71.19.48-.19.72-.19c.24.01.47.23.71.24s.48-.18.72-.17.47.1.71.11.48-.18.72-.17.47.25.71.25c.24.01.48-.12.72-.11s.47.23.71.23c.24.01.48-.15.72-.15.24.01.48-.15.72-.15s.47.09.71.1.48.07.71.07c.24.01.47.19.7.19.24.01.47-.11.71-.1s.48-.15.71-.15c.24.01.47.13.7.13.24.01.47-.08.71-.08.24.01.47.22.7.22.24.01.47-.09.71-.09s.47.23.7.24c.24.01.48-.33.72-.32s.47.24.7.25c.24.01.47.06.71.07s.47 0 .71.01.48-.22.71-.21c.24.01.47.14.7.14.24.01.47-.08.71-.07s.47-.02.71-.01.47.03.71.03c.24.01.47.17.7.17.24.01.47-.06.71-.05s.47-.07.71-.06.47-.02.71-.01.46.27.7.28.49-.28.72-.28c.24.01.47.19.71.2s.48-.1.72-.09.46.3.7.31.49-.25.73-.24.46.33.7.34.48-.09.72-.08.49-.19.73-.18.46.25.7.26c.24.02.47.16.7.17.24.02.49-.22.73-.21.24.02.46.17.7.2s.49-.07.72-.05.47.12.7.15c.25.03.5.01.71.07.24.07.49.14.68.24.22.12.34.36.5.52.17.17.18.41.29.62.11.2.38.32.45.56.06.22-.1.48-.07.73.03.22.19.44.2.69.01.24.24.47.25.71s-.06.48-.05.72-.04.48-.03.71c.01.24-.18.48-.17.72s-.02.48-.02.71c.01.24.29.47.29.71.01.24-.3.48-.3.72.01.24.18.47.18.71.01.24-.12.48-.11.72s.09.47.1.71.1.47.11.71-.04.48-.03.71c.01.24-.16.48-.16.72.01.24.16.47.16.71.01.24-.02.48-.01.71.01.24.01.48.02.71.01.24-.06.48-.05.72s.33.47.33.7c.01.24.01.48.01.71.01.24-.23.48-.22.72s.06.47.07.71-.02.48-.01.71c.01.24.15.47.16.71s-.23.48-.22.72.01.48.02.72.06.48.07.71c.01.24.3.47.3.71.01.24-.1.48-.09.72s.02.48.03.72.04.48.05.72-.09.48-.08.72.25.47.26.71-.21.49-.19.73c.01.24.3.46.31.7s-.34.5-.33.73c.01.24.13.47.14.71s.12.47.13.71-.2.49-.19.73.4.46.41.7-.06.48-.05.72-.22.49-.21.73.2.47.21.71c.01.25.01.49.02.74s-.12.5-.11.75.04.49.05.74-.01.49 0 .74.19.48.21.73c.01.25-.14.5-.13.75s.07.49.08.74.22.48.24.73-.05.5-.04.74.12.49.13.74-.22.5-.21.75.08.49.09.74.05.51 0 .84c-.04.23.02.61-.02.94-.24-.01-.6-.14-.85-.15-.24-.01-.48-.08-.73-.09-.24-.01-.5.26-.74.25s-.48-.13-.72-.14-.48-.16-.72-.17-.48-.1-.72-.11-.49.27-.74.26c-.24-.01-.48-.23-.72-.24s-.49.12-.73.11-.48-.01-.72-.02-.48-.1-.72-.11-.48-.13-.72-.14-.49.08-.73.07-.49.06-.73.05-.48.02-.72.01-.48-.16-.72-.17-.48-.17-.72-.18-.49.25-.73.25c-.24-.01-.48.11-.73.1-.24-.01-.47-.35-.71-.36s-.48.05-.72.04c-.24 0-.49.2-.73.19s-.48-.09-.72-.09-.48.05-.72.04-.48-.06-.72-.06-.48-.22-.72-.22-.48.01-.72 0c-.24 0-.48-.01-.72-.01s-.48.25-.72.25-.48-.2-.72-.2-.48-.04-.72-.04-.48.1-.72.1-.48-.11-.72-.11-.48.16-.72.16-.48.1-.72.1-.48-.16-.72-.16-.48-.12-.72-.12c-.24-.01-.48.19-.72.18s-.48-.05-.72-.06-.49.16-.73.15-.47-.38-.71-.39-.48-.04-.72-.05-.49.15-.73.14-.47-.18-.71-.2c-.24-.01-.48-.03-.72-.05s-.49.08-.72.06c-.24-.02-.47-.12-.71-.14s-.5.23-.74.21-.46-.22-.7-.25c-.24-.02-.48.03-.72.01s-.47-.1-.71-.13-.47-.07-.71-.1-.47-.09-.71-.12-.48-.01-.72-.05c-.22-.03-.44-.11-.66-.13s-.47.24-.69.22-.44-.15-.66-.16-.45-.02-.67-.03-.44-.24-.66-.25-.45-.02-.67-.03c-.16.01-.38.04-.6.02z"/><path d="m32.15 72.9101c-.23-.08-.52.04-.75-.02-.24-.06-.47-.09-.71-.13-.24-.05-.42-.41-.66-.45-.24-.03-.52.25-.76.23s-.48-.05-.72-.05-.48.04-.72.06-.5-.18-.74-.15-.47.13-.71.18-.44.07-.68.14c-.1-.22-.25-.37-.36-.57-.12-.21-.1-.51-.23-.7-.13-.2-.55-.19-.69-.38-.15-.19-.08-.56-.24-.73-.17-.18-.33-.37-.51-.52-.19-.16-.39-.31-.59-.43-.2-.13-.55.01-.76-.09-.22-.1-.35-.4-.58-.47s-.49.01-.72-.02-.46.07-.7.08c-.23 0-.46-.09-.7-.05-.23.04-.4.21-.62.29s-.52-.03-.72.08c-.2.12-.28.4-.45.55-.18.15-.36.27-.51.44s-.26.36-.39.56c-.12.2-.24.38-.33.59s-.08.44-.14.66-.35.4-.38.63c-.02.26-.11.5-.11.73.01.26.19.49.24.71.05.24.1.48.21.69s.17.48.34.66c.15.16.4.27.61.42.18.13.35.32.58.44.2.11.51.01.74.11.21.09.42.2.65.3.21.08.33.28.57.36-.07.21-.2.33-.27.54s-.14.43-.21.64-.12.43-.19.64.12.51.05.72-.34.36-.4.57-.14.42-.2.64c-.06.21-.13.43-.18.64-.06.24.16.53.13.78-.03.24-.33.46-.34.72 0 .25 0 .51.01.76.02.25.18.48.22.73s-.07.53-.01.77.38.41.47.64c.08.24.19.45.3.67.11.23.13.48.26.69.13.22.19.48.34.67.16.2.3.42.48.59s.35.39.56.53.46.25.69.35c.22.09.49.07.71.16s.45.16.68.24.5.02.73.1.41.3.64.37.44.22.67.29.54-.16.77-.1.38.46.62.51c.23.05.51-.09.75-.04s.48.02.72.06.43.36.67.39.49.03.72.06c.24.03.5-.12.73-.11.24.01.48.06.71.04.24-.02.47-.11.7-.15.24-.04.43-.2.66-.27s.56.16.78.07.29-.5.5-.61.39-.24.58-.37c.2-.13.39-.24.58-.39.18-.15.4-.25.57-.42s.38-.29.54-.47c.15-.18.35-.33.49-.52s.11-.49.24-.69.33-.34.45-.55c.12-.2.3-.37.41-.59.11-.21.24-.41.34-.63s-.06-.55.02-.77c.09-.23.28-.4.35-.63s.24-.43.3-.66c.06-.24.08-.48.12-.71.04-.24.14-.47.16-.7.02-.24-.03-.49-.03-.72.01-.24-.17-.47-.19-.71-.01-.24.19-.5.16-.73-.03-.24-.28-.43-.33-.66s.11-.52.04-.75-.12-.47-.22-.69c-.09-.22-.23-.43-.34-.64s-.29-.39-.42-.59-.2-.45-.34-.64-.31-.37-.47-.55-.35-.33-.53-.49c-.17-.16-.4-.27-.59-.42s-.45-.18-.65-.32c-.2-.13-.24-.52-.45-.63-.2-.12-.45-.19-.67-.3-.21-.1-.51-.02-.74-.11-.21-.09-.38-.32-.61-.4zm1.43 14.09c-.15.21-.16.52-.33.67-.18.17-.38.35-.59.46-.21.12-.55-.1-.78-.04-.23.07-.39.41-.63.44-.23.03-.48.03-.73.04-.24.01-.49.05-.73.06-.22-.04-.43-.29-.65-.32s-.46-.01-.68-.04-.44-.1-.67-.13c-.22-.03-.46.02-.68-.02-.22-.03-.42-.23-.65-.27-.22-.04-.51.27-.73.23s-.39-.38-.61-.42c-.22-.05-.43-.12-.65-.17-.26-.06-.49-.14-.73-.24-.25-.11-.62 0-.83-.16s-.23-.52-.38-.74c-.14-.2-.37-.38-.47-.64-.08-.23-.26-.48-.3-.76-.03-.24.06-.5.04-.74-.02-.25-.16-.49-.16-.72-.01-.25.22-.49.23-.73.01-.25-.17-.5-.15-.74s.09-.49.13-.72c.04-.24.07-.49.12-.72.06-.24.14-.48.21-.7.08-.23.09-.5.18-.72.1-.22.44-.33.56-.54s.3-.37.44-.56c.14-.2.15-.48.31-.66.15-.18.34-.33.52-.5.17-.17.42-.24.61-.39s.33-.35.53-.48.44-.19.65-.3.32-.42.55-.52c.22-.1.45-.17.68-.25.22-.08.5 0 .74-.07.23-.07.47-.07.71-.12.23-.05.46-.11.7-.15.23-.04.46-.1.7-.13.23-.03.5-.29.75-.24s.43.33.63.45.39.26.57.4c.19.14.36.29.54.45s.54.12.7.29.11.53.25.72.27.37.4.57.36.33.47.54.06.49.15.7c.09.22.42.35.49.57s.15.46.21.68c.05.23 0 .49.04.72s-.04.48-.03.71c.02.23-.02.46-.02.7 0 .23-.08.46-.09.69-.02.23-.02.46-.06.69s.04.48-.02.71c-.05.23-.1.46-.17.68s-.01.5-.1.72-.33.37-.43.58-.28.37-.4.58c-.12.2-.23.41-.36.6z"/><path d="m30.88 82.95c-.22.03-.44.01-.66.05-.22.05-.44.04-.66.09-.21.05-.44.07-.65.12s-.45.01-.66.06c-.34.07-.8 0-1.15.03.09.19.24.59.31.8.08.25.24.42.41.51.24.13.49.2.76.29.25.08.54.06.81.14.26.07.48.25.75.33.2-.08.43-.06.66-.12.22-.07.38-.28.59-.37.22-.09.37-.18.53-.34.13-.13.18-.26.23-.48.04-.19.22-.36.24-.57s-.02-.4.02-.59c-.26-.02-.51.03-.77 0-.28-.02-.51.01-.76.05z"/><path d="m31.16 79.65c-.01.16.1.37.34.58.22.2.45.45.64.44.26-.01.6-.09.86-.27.23-.17.38-.48.61-.63 0-.2.08-.44.07-.64-.17-.1-.33-.3-.51-.42-.17-.12-.43-.12-.61-.21-.2-.1-.4-.25-.59-.24s-.41.34-.6.62c-.16.25-.2.54-.21.77z"/><path d="m29.2 79.45c-.22-.11-.49-.09-.68-.19-.22-.11-.4-.25-.59-.35-.22-.11-.31-.45-.51-.53-.22-.09-.46-.16-.68-.2-.12-.03-.25.43-.45.69-.15.21-.59.34-.63.53-.05.26 0 .55.05.71.07.22.29.45.48.55.18.1.48-.11.7-.06.22.04.44.11.62.15.16.04.43.09.7-.16.16-.15.36-.3.57-.5.16-.16.22-.47.42-.64z"/><path d="m69.64 61.39c-.06-.2-.02-.33-.09-.53-.25-.06-.48-.21-.74-.28-.25-.07-.5-.18-.75-.24-.25-.07-.53-.07-.78-.12-.26-.05-.52-.09-.78-.11-.24-.02-.48.02-.72.01s-.49.16-.73.15-.48-.05-.72-.06-.47-.38-.71-.39-.49.09-.73.08-.49.12-.73.11-.48-.12-.72-.13-.49.15-.73.14-.47-.26-.71-.27-.48-.08-.72-.09-.49.27-.74.26c-.24-.01-.47-.19-.71-.2-.25-.01-.5.11-.75.09s-.5.04-.75.02-.48-.26-.72-.28c-.25-.02-.49-.1-.73-.12-.25-.02-.51.12-.75.1-.25-.02-.49-.1-.73-.12s-.5.06-.75.03c-.25-.02-.5.03-.75 0s-.47-.24-.72-.27c-.24-.03-.48.08-.69.06-.24-.02-.46-.09-.67-.1-.25-.01-.47.11-.67.11-.25.01-.48-.1-.68-.06-.24.05-.52-.01-.71.09-.19.11-.22.44-.37.62-.14.16-.26.26-.38.47.21.16.29.42.51.53.23.12.51.13.75.2.24.08.47.26.72.3s.52.06.77.08.52-.3.77-.3.5.06.75.05c.25 0 .51-.04.76-.04s.51.11.76.13c.24.01.47 0 .71.01s.46.16.7.17.47.06.71.07.47 0 .71.01.48-.14.72-.12c.24.01.46.18.7.2.24.01.48-.13.72-.12s.46.22.7.24c.24.01.49-.19.72-.18.24.01.47.09.7.1s.47.11.7.12c.24.01.48-.1.72-.09s.47.04.71.05.47.04.71.06c.24.01.47.02.71.04.24.01.48-.06.71-.05.24.01.46.2.7.21s.47 0 .71.01.47.12.7.13.47-.01.71 0 .48-.18.72-.17.48.16.73.07c.22-.09.44-.23.66-.35.21-.07.33-.24.56-.33z"/><path d="m48.8 55.35c-.27-.01-.57-.08-.85.03-.26.11-.56.27-.82.36.03.24.09.58.12.83.24.03.51.06.75.09s.47.11.71.14.49-.06.73-.03.46.2.7.23.47.15.71.18.48.05.72.08c.24.02.5-.22.74-.21s.47.16.7.17c.24.01.48-.1.72-.08.24.01.46.18.7.2.24.01.48-.11.72-.1s.47.06.71.08.48-.11.72-.09c.24.01.47.12.7.13.24.01.46.27.7.28s.48-.14.72-.12c.24.01.47.08.71.1.24.01.47.13.7.15.24.01.49-.2.72-.18.24.01.48-.11.72-.1s.46.35.69.36c.24.01.48-.13.72-.12s.46.22.7.23.48-.08.72-.07.48-.12.72-.1c.24.01.47.12.71.13s.48-.08.71-.07c.24.01.47.04.71.05s.48-.1.72-.09c.26.01.5.04.77-.08.25-.11.66-.18.91-.28-.19-.24-.52-.43-.67-.57-.23-.21-.39-.55-.61-.58-.23-.03-.5.16-.73.12-.23-.03-.47-.02-.71-.05-.23-.03-.48.04-.72.01-.23-.03-.43-.35-.67-.37-.23-.03-.46-.15-.7-.17-.23-.02-.5.31-.74.29s-.46-.15-.69-.16c-.24-.01-.49-.02-.73-.04-.24-.01-.49-.01-.73-.03-.24-.01-.48-.17-.72-.18s-.49.03-.73.02-.49.1-.74.09c-.24-.01-.47-.31-.72-.32-.24-.01-.49.02-.73.01s-.49-.04-.73-.05-.5.23-.74.22-.49.01-.73-.01c-.24-.01-.49-.03-.73-.04s-.48-.28-.72-.29-.49.08-.73.07-.49.1-.73.09-.48-.25-.72-.26-.49.21-.74.2c-.24-.01-.48-.1-.73-.11s-.49.1-.73.09-.48-.23-.72-.24-.5.17-.74.16z"/><path d="m107.05 53.19c-.27-.03-.52-.1-.79-.17s-.58.04-.84-.05-.59-.01-.85-.11c-.23-.09-.29-.51-.5-.66-.2-.14-.47-.19-.68-.32-.26-.17-.5-.14-.69-.16-.26-.03-.31.09-.48.3-.13.16-.46.29-.54.57.15.18.29.46.46.62s.43.24.62.38.33.37.53.49.44.2.65.31c.21.1.46.15.68.23s.43.24.66.29c.23.06.47.12.7.16s.49.03.72.04c.24.01.48-.12.71-.14.24-.02.46-.13.68-.18.23-.05.42-.19.63-.27.22-.09.39-.2.59-.32s.6.01.77-.15.29-.52.43-.72c-.23 0-.56-.01-.78 0-.23 0-.45.11-.68.11s-.46-.15-.68-.15c-.23 0-.45.18-.68.17-.21-.01-.42-.24-.64-.27z"/><path d="m108.58 50.6001c.03.12.37.15.62.27.18.08.38.1.57.14.24.05.48.28.61.22.21-.11.21-.47.37-.69.14-.19.3-.37.44-.6.13-.21.46-.4.6-.6-.22-.08-.58.04-.77-.02-.22-.08-.38-.26-.58-.33-.21-.07-.36-.27-.57-.34-.2-.07-.35.08-.57 0-.07.23-.3.29-.39.51-.09.23-.14.48-.2.7-.06.25-.17.52-.13.74z"/><path d="m103.05 49.3c.26.12.53.16.72.19.27.04.55-.06.74-.16.2-.1.3-.35.44-.56.12-.18.27-.37.38-.59.1-.2.04-.34.14-.56-.23.02-.35-.05-.57-.13s-.41-.23-.62-.32c-.23-.1-.43-.22-.65-.22-.21 0-.5-.01-.71.19-.13.13-.17.41-.3.66-.19.36-.33.63-.25.85.1.19.3.48.68.65z"/><path d="m61.71 41.99c.27.08.52.16.74.25.26.11.44.32.64.46.22.16.5.25.63.48.12.21-.06.5101-.02.8001.03.2299.33.4699.31.7599-.02.24-.1.47-.08.71.01.24.13.46.16.7s-.24.51-.2.75c.03.24.29.45.31.69-.06.01-.11.01-.16.01.03.23.14.45.16.68s-.15.48-.13.71.04.46.07.69-.02.48.02.71c.05.23.12.4701.19.68.06.2001.32.36.51.52.16.14.32.33.51.46.19.12.49.26.66.39.13-.22.26-.59.43-.81.19-.25.22-.48.21-.72-.01-.25.25-.51.24-.76s0-.5-.01-.75-.18-.49-.2-.74c-.01-.25-.04-.5-.06-.75s.03-.5.01-.75.11-.51.09-.76-.41-.47-.43-.72.28-.52.26-.77-.21-.49-.23-.73-.14-.49-.16-.74.2-.51.18-.76.08-.51.06-.75c-.02-.23-.18-.46-.2-.69s-.1-.46-.12-.7c-.02-.23-.09-.4599-.11-.6999-.02-.23.13-.4801.11-.7101s.03-.47.02-.71c-.02-.23-.21-.45-.23-.6899-.02-.23.02-.4701 0-.7001s.03-.4699.01-.7099c-.02-.23-.09-.4601-.11-.7001-.02-.23.12-.4799.11-.7099-.02-.23-.39-.4401-.41-.6701s-.01-.47-.03-.7 0-.4699-.02-.6999.03-.4701.01-.7101c-.02-.23.12-.4799.1-.7199-.02-.23.01-.4701-.01-.7101-.02-.23-.15-.46-.17-.69-.03-.25-.35-.46-.58-.71-.21-.23-.42-.4699-.66-.5699-.17-.07-.45-.0001-.73.1299-.26.12-.46.31-.56.49-.11.2-.28.38-.39.59-.11.2-.17.4401-.29.6501-.12.2-.27.3799-.39.5899s-.29.37-.41.58c-.11.2-.25.4-.36.6-.11.21-.28.38-.39.59s-.02.52-.13.73-.16.44-.27.65-.51.2801-.61.4901-.09.4799-.19.6899-.17.4401-.27.6501c-.09.22-.16.44-.25.66-.1.25-.28.4399-.36.66-.09.25-.11.5199-.17.7399-.08.26.04.54 0 .7601-.05.27.03.4899.04.7099.02.27-.27.61-.15.82.12.2.48.2401.7.4001.18.13.29.4399.53.5599.2.1.45.1901.7.2801.21.08.47.1099.72.1899.27.05.55-.02.81.05z"/><path d="m49.37 48.94c.01.29.13.53.17.77.05.28-.12.61-.01.83.12.23.5.24.72.4.19.14.33.37.61.46.22.07.53.22.82.25.07-.24-.01-.63.08-.89.08-.25.44-.46.45-.72.01-.25.01-.53-.02-.78-.02-.25-.04-.51-.07-.76s-.2-.48-.22-.73c-.01-.24-.21-.47-.23-.7-.01-.24-.04-.47-.05-.71s.32-.49.31-.73-.16-.47-.17-.71.12-.48.1-.72c-.01-.24-.17-.47-.18-.71s-.13-.47-.14-.71.1-.48.08-.72c-.01-.24.04-.48.03-.72-.01-.26-.02-.49-.01-.72.01-.26.11-.44.2-.66.09-.21.13-.4.33-.58.16-.14.29-.37.55-.49.22-.1.35-.34.54-.47.2-.13.57-.05.75-.21s.36-.35.51-.54c.14-.19.15-.48.26-.7.11-.21.08-.46.14-.7.07-.22.08-.44.11-.68.03-.23.02-.44.02-.69-.01-.24.26-.49.25-.72-.01-.24-.13-.48-.14-.72 0-.24.14-.48.14-.72s-.22-.48-.22-.72-.01-.48 0-.72.18-.47.2-.71c.02-.25-.01-.47-.06-.65-.07-.23-.14-.48-.29-.61-.16-.14-.37-.34-.58-.4s-.48.01-.69 0c-.3-.01-.46.26-.65.41-.2.16-.36.29-.43.57-.05.23-.21.5-.16.79s.12.59.16.88c.05.3.1.58.06.87-.03.25.04.51.03.76s.03.5.02.76c-.01.25-.23.49-.25.74s.21.54.15.79c-.06.24-.22.46-.33.7-.1.22-.25.43-.4.64-.14.19-.32.46-.51.65-.02-.25-.04-.57-.06-.81-.02-.25.17-.51.15-.75-.02-.25-.26-.48-.28-.73s-.03-.5-.04-.74c-.02-.25-.02-.49-.04-.74s.16-.51.14-.75c-.02-.25-.15-.48-.17-.73s-.09-.48-.11-.73c-.02-.23.07-.47.05-.7s-.12-.45-.15-.68-.06-.46-.1-.69-.18-.43-.24-.66c-.06-.22-.03-.47-.11-.69-.06-.18-.18-.44-.39-.58-.17-.11-.48-.02-.69-.1s-.41-.18-.61-.21c-.12-.02-.21.3-.4.61-.16.25-.35.44-.36.64-.01.23.09.45.09.68s-.05.45-.04.68-.18.46-.17.69.07.45.08.68c.02.23-.08.46-.07.69.02.23.28.43.29.66.02.25-.07.5-.05.75s.22.48.24.73-.09.5-.07.75c.02.24.02.49.04.75.02.24-.03.5-.01.75.02.24.01.5.03.75.02.24.07.38.1.63-.23-.17-.4-.2-.56-.37-.19-.2-.16-.52-.28-.73-.13-.23-.2-.43-.27-.67-.07-.25-.44-.43-.47-.69s-.03-.52-.05-.77c-.02-.26.23-.54.22-.81-.01-.26-.17-.52-.18-.78s-.01-.53-.02-.79c-.02-.26-.03-.53-.06-.79-.04-.26-.3-.47-.37-.72s.06-.6-.13-.82c-.17-.2-.34-.44-.55-.63s-.54-.36-.71-.55c-.12.2-.1.61-.23.8s-.48.25-.59.45c-.12.2-.05.49-.13.7-.08.23-.16.46-.13.73.03.25.21.52.2.76-.01.25-.03.5-.03.74 0 .25.05.5.06.74.01.25-.23.52-.2.76.03.25.26.47.3.71.05.25-.1.54-.03.78s.27.44.37.67.08.54.22.75c.13.21.51.23.68.42.16.18.28.4.48.55.19.15.35.36.57.49.21.12.49.08.73.18.22.09.45.17.7.23.23.06.53.12.79.16.02.23-.07.55-.06.78.02.23-.07.47-.05.71.02.23.13.46.15.69s.25.45.26.68c.02.23-.25.49-.24.72.02.23-.03.47-.01.7s.12.45.14.68.14.45.16.69c.02.23-.11.47-.09.7s.22.45.23.68-.2.47-.19.7.12.45.13.68-.04.46-.03.69c.07.24.24.47.24.7z"/><path d="m5.59 25.43c.18-.18.35-.35.52-.53s.5-.21.67-.39.26-.44.43-.62.27-.43.43-.61c.17-.18.57-.16.73-.34.17-.18.19-.5.36-.69.17-.18.35-.36.52-.54s.54-.34.7-.52c-.14-.17-.59-.26-.74-.44-.14-.18-.17-.46-.32-.63s-.41-.24-.57-.42c-.15-.17-.21-.43-.37-.59s-.2-.46-.37-.62c-.17-.15-.4-.26-.58-.4s-.47-.13-.66-.26-.28-.43-.48-.54-.44-.17-.65-.26-.42-.22-.64-.28-.42.15-.66.11c-.16.19-.24.35-.39.54-.16.19-.5.23-.66.42s-.34.37-.49.55c-.16.19-.39.32-.55.5-.16.19-.11.55-.27.74s-.28.42-.43.6c-.16.19-.49.23-.64.41-.16.19-.33.42-.48.6.16.19.340001.41.500001.58.17.19.389999.31.549999.49s.45.25.61.43.25.44.4.62c.16.18.34.35.49.54.16.19.14.51.29.7.14.18.5.14.66.28.17.16.16.51.34.63.2.13.49.05.68.12.23.08.4.06.6.04.22-.01.31-.06.47-.22zm-3.35-4.14c.14-.19.32-.5.47-.69.14-.19.45-.25.6-.44.14-.18.19-.44.34-.64.14-.18.21-.43.35-.63.14-.18.42-.13.57-.32.14.18.3.18.43.35.14.18.26.37.39.54.14.18.1.48.23.65.14.18.54.15.67.32.13.18.14.45.27.62.13.18.42.37.55.54-.16.12-.5.25-.71.41-.18.13-.48.11-.68.25-.18.13-.33.33-.53.47-.19.14-.33.43-.52.58-.19-.16-.29-.5-.47-.67-.19-.16-.4-.29-.59-.45s-.34-.36-.53-.53c-.2-.15-.64-.19-.84-.36z"/><path d="m96.01 23.38c.22.1.39.28.61.38s.45.16.67.26.41.24.63.34.4.26.62.37c.22.1.38.31.6.41s.44.18.66.28.55-.06.77.04.43.19.65.29.39.29.61.39.46.13.68.23c.22.09.4.32.58.34.25.02.54-.04.69-.14.17-.11.15-.41.18-.64.02-.18.21-.44.13-.67-.08-.25-.2-.46-.25-.7-.05-.25-.36-.48-.37-.73-.02-.26.01-.53.02-.78s.03-.52.07-.77.36-.45.42-.69c.06-.25-.05-.54.03-.78s.31-.43.4-.67c.09-.23-.01-.51.07-.74s.4-.38.46-.61c.06-.24.18-.47.23-.7.05-.24.07-.49.11-.73.03-.24-.19-.51-.18-.74.01-.24.12-.48.11-.72s0-.49-.04-.72c-.04-.24-.15-.46-.22-.69-.06-.23-.14-.46-.23-.68s-.31-.37-.43-.58c-.11-.21-.19-.42-.33-.63-.13-.19-.17-.47-.33-.66-.15-.18-.45-.29-.63-.46.04-.26.33-.54.36-.8.03-.28.05-.58.03-.82997-.02-.28-.39-.44-.52-.66-.11-.19-.11-.5-.33-.68-.2-.16-.49-.17-.71-.27-.27-.12-.49-.32-.69-.27-.21.05-.51.08-.7.26-.16.14-.13.5-.3.69-.14.17-.3.35-.46.54-.15.18-.37.29-.54.47-.23 0-.45.11997-.68.12997s-.47-.08997-.7-.06997c-.23.02997-.43.18997-.66.23997-.23.04-.52-.18-.74-.12s-.43.21-.65.29-.41.22-.62.32c-.21.09-.36.31-.56.42s-.41.19-.61.32c-.19.13-.5.1-.69.24-.18.14-.25.42-.42.58-.17.15-.41.24-.58.41-.16.16-.13.5-.28.68-.16.19-.32.37-.48.55-.16.19-.5.22-.66.4s-.25.42-.41.6-.35.34-.52.51-.35.34-.52.5c-.18.17-.29.41-.47.57-.19.15-.34.36-.54.51-.19.14-.44.23-.65.36-.2.13-.41.28-.62.39s-.42.26-.65.36c-.22.09-.49.05-.72.13.19.13.3.31.46.43.18.14.47.1.64.23.18.13.34.26.51.38.18.12.25.43.44.52.23.11.42.28.65.39s.51.08.74.19.38.36.61.47.54.02.77.12.4.31.63.42c.23.1.46.19.69.29s.53.03.76.14.42.27.65.38c.23.1.43.25.66.35s.51.09.74.19.33.47.56.57c.24.06.56-.05.79.06z"/><path d="m92.79 27.72c.22.11.46.13.69.19.24.06.45.29.68.31.25.02.49-.13.73-.15s.5.03.73-.05c.23-.07.52-.07.73-.19s.36-.37.54-.53.42-.3.56-.5c.14-.19.3-.53.39-.76-.22-.11-.64-.05-.86-.16s-.41-.27-.62-.38c-.22-.11-.32-.44-.54-.55s-.42-.25-.64-.36-.55 0-.77-.11-.32-.45-.53-.56c-.22-.11-.54-.02-.76-.13s-.34-.41-.55-.52c-.22-.11-.49-.11-.71-.22s-.49-.31-.71-.42c-.12.23-.09.61-.17.84-.09.25-.12.47-.16.71-.04.26-.06.48-.05.72.01.25.08.46.15.7s-.05.55.08.77c.13.21.46.26.64.44.17.17.15.58.37.73.22.13.55.07.78.18z"/><path d="m25.73 11.97c-.2-.17-.51-.4-.7-.58s-.34-.4-.53-.58-.54-.19-.73-.36c-.2-.17-.38-.35-.59-.51-.2-.16-.39-.34-.61-.48-.24-.16-.44-.34-.66-.42-.27-.1-.54-.3-.78-.29-.26.01-.54.19-.78.32-.21.11-.29.43-.5.63-.18.16-.34.25-.51.47.19.13.36.13.56.25.19.13.34.33.53.45.19.13.25.45.44.58s.51.09.69.23c.18.15.2.45.36.62.18.19.42.29.58.42.21.16.49.08.69.15.23.08.42.34.64.31s.37-.3.59-.42c.19-.1.43-.13.62-.3.17-.13.52-.3.69-.49z"/><path d="m33.67 8.37997c-.18-.18-.25-.44-.42-.63-.18-.18-.3-.41-.48-.6-.17-.18-.35-.37-.52-.55s-.57-.16-.74-.34-.13-.58-.3-.76-.43-.29-.6-.47-.4-.32-.57-.5c-.18-.18-.44-.28-.61-.46-.18-.18-.4-.3-.58-.48-.18-.17-.57-.39-.84-.28-.2.08-.36.24-.56.33-.19.09-.45.06-.64.16-.18.1-.34.26-.54.36-.18.1-.45.26-.65.37.18.16.37.45.55.61s.45.22.63.38.41.27.58.43c.18.16.42.26.6.41.18.16.38.29.56.45s.16.53.34.69.46.2.63.37c.18.17.31.37.46.51.19.17.4.27.57.38.21.14.43.15.63.2.21.06.4.17.64.13.2-.03.35-.24.6-.33.19-.07.41-.1.64-.2.17-.07.4-.07.62-.18z"/><path d="m40.51 7.99c-.02-.23-.13-.44-.15-.67s.02-.47 0-.7.16-.48.14-.71-.29-.44-.31-.67.08-.47.07-.7c-.02-.23.14-.47.12-.71-.02-.23-.37-.44-.39-.67s.32-.49.3-.72-.1-.46-.12-.69 0-.46-.02-.7c-.02-.23-.21-.429999-.23-.659999-.26.03-.48.069999-.73.099999s-.53-.169999-.78-.139999-.46.419999-.71.449999-.5.080001-.75.110001-.57-.17-.82-.14c.02.239999.18.519999.2.759999.03.24.05.48.07.72s.03.49.05.73-.16.5-.14.74.08.48.1.72.12.48.14.72-.04.49-.01.73c.02.24-.03.49-.01.73s.22.46.24.7.07.45.09.69c.25 0 .48-.04.72-.04.25 0 .5.12.74.12.25 0 .5-.17.74-.17.25 0 .49.18.74.18.24-.02.46-.11.71-.11z"/><path d="m56.4 13.16c.16.09.3.36.53.35.2-.01.29-.27.49-.26-.03-.18.15-.27.12-.46s.03-.43-.03-.6c-.08-.2-.52-.23-.63-.42s.1-.55.01-.74c-.1-.2-.21-.34-.23-.55-.02-.23-.07-.45-.06-.68.02-.23-.05-.48.01-.7.06-.23.12-.46.21-.67s.2-.43.31-.63c.12-.2.4-.29.54-.47.14-.19.21-.41.37-.58s.34-.31.51-.47c.18-.15.29-.38.49-.51.19-.13.48-.11.68-.22.21-.11.42-.16.64-.24.22-.09.34-.46.57-.52s.51.22.74.2.47-.39.7-.37.58.17.81.24c-.07.22-.14.56-.22.78s-.18.43-.26.64c-.08.22-.27.39-.35.61-.07.22-.31.39-.37.61-.07.22.23.54.18.76-.05.23-.41.39-.44.62-.03.25.18.51.19.74 0 .25 0 .48.05.71.05.24.12.45.22.67s.02.56.17.75c.14.19.45.25.64.41.18.15.44.15.67.28.2.11.25.53.45.61.21.09.46.13.67.18.22.05.47.09.69.08.22 0 .48 0 .7-.06.2-.05.3-.43.51-.53.19-.09.43-.09.62-.23.22-.15.51-.21.66-.38.17-.19.37-.41.47-.62.11-.23.06-.53.09-.77.04-.24-.06-.49-.07-.73s.12-.5.08-.74-.04-.49-.08-.73c-.04-.22-.46-.35-.53-.56s.03-.48-.05-.69c-.08-.2-.02-.48-.12-.69-.09-.2-.49-.26-.59-.47-.09-.2-.02-.49-.11-.7-.09-.2-.28-.42-.37-.63.18-.11.5-.12.7-.25.16-.12.25-.39.45-.52.18-.12.47-.08.67-.2.19-.12.37-.25.56-.36s.43-.14.63-.25.38-.22.59-.31c.22-.1.31-.53.54-.61s.48-.18.71-.24c.24-.06.5-.05.74-.09s.5.05.74.03.49-.08.73-.08.49.07.73.09.47.17.71.2.53-.25.77-.21.47.17.71.22.48.1.72.16.48.11.71.17c.24.06.49.32.76.28.25-.03.5-.23.75-.24 0-.22.13-.53.12-.74-.21-.13-.49-.28-.7-.41-.21-.14-.46-.24-.69-.33-.23-.08-.45-.21-.68-.28-.23-.08-.5-.06-.73-.13-.24-.07-.5-.02-.74-.08s-.49-.02-.73-.07-.47-.12-.71-.16-.45-.3299995-.7-.3499995c-.24-.02000004-.5.0999995-.75.0899995s-.49-.11-.74-.11-.49.0300002-.74.0500002c-.24.02-.47.1699998-.72.2099998-.24.04-.47.14-.71.19s-.46.13-.7.2c-.23.07-.44.2-.67.28-.21.04-.48-.01-.71.09-.22.1-.39.31-.61.42s-.47.14-.69.26c-.2.12-.49.11-.7.25-.2.13-.44.23-.64.38-.19.15-.2.53-.39.69-.17.14-.48.19-.73.27-.26.09-.56.18-.76.11-.23-.07-.47-.07-.69-.13-.23-.06-.43-.25-.65-.29-.24-.04-.49.12-.72.09-.24-.03-.45-.38-.68-.39-.24-.01-.48.07-.71.09-.24.01-.45.2-.68.24-.24.04-.49-.05-.71.02-.23.07-.44.19-.65.28-.22.09-.41.23-.61.35s-.37.27-.56.41-.38.26-.55.42-.36.3-.52.47c-.15.17-.35.31-.49.5-.14.18-.36.32-.49.52-.13.19-.06.51-.18.72-.11.2-.36.33-.47.55-.12.23-.12.5-.22.71-.1.24-.4.4-.47.62-.08.25.2.57.16.8-.05.26-.3.47-.29.7.01.25.17.47.25.69.07.23.01.54.15.74.13.19.51.19.69.37.16.16.33.3.53.46.18.14.31.37.52.51.2.12.44.18.66.31zm8.46-6.22c.16.2.22.6.34.81.13.22.49.33.57.55.08.24-.09.54-.07.78.03.25-.08.46-.11.7-.03.25.26.58.16.81-.1.22-.48.19-.64.38-.17-.02-.14.05-.31.04.01-.22 0-.36.01-.59.01-.22-.08-.44-.07-.67.01-.22.01-.44.02-.66s.03-.44.04-.66.21-.43.22-.66c-.01-.23-.18-.61-.16-.83z"/></g></svg>